<?xml version="1.0" standalone="no"?>
<!DOCTYPE svg PUBLIC "-//W3C//DTD SVG 20010904//EN"
 "http://www.w3.org/TR/2001/REC-SVG-20010904/DTD/svg10.dtd">
<svg version="1.0" xmlns="http://www.w3.org/2000/svg"
 width="260.000000pt" height="260.000000pt" viewBox="0 0 260.000000 260.000000"
 preserveAspectRatio="xMidYMid meet">
<metadata>
Created by potrace 1.11, written by Peter Selinger 2001-2013
</metadata>
<g transform="translate(0.000000,260.000000) scale(0.100000,-0.100000)"
fill="#000000" stroke="none">
<path d="M0 1300 l0 -1300 1300 0 1300 0 0 1300 0 1300 -1300 0 -1300 0 0
-1300z m892 574 c168 -99 319 -188 374 -219 l32 -18 68 40 c38 22 121 70 184
108 63 37 159 93 214 125 l99 57 241 -142 c132 -78 262 -154 289 -169 l47 -27
0 -339 0 -339 -47 -27 c-139 -80 -463 -270 -494 -289 l-36 -23 -69 40 c-38 22
-105 62 -149 88 -213 126 -323 190 -338 195 -9 4 -59 -20 -123 -58 -148 -87
-339 -199 -395 -231 -25 -14 -51 -26 -58 -26 -7 0 -72 35 -144 78 -73 43 -193
114 -267 157 -74 43 -143 85 -152 93 -17 14 -18 43 -18 342 0 299 1 328 18
342 9 8 127 79 262 158 135 79 256 151 270 161 14 10 26 19 27 19 0 0 75 -43
165 -96z"/>
<path d="M1737 1775 c-131 -36 -257 -136 -311 -247 -126 -257 -30 -566 210
-684 117 -57 237 -68 363 -34 176 49 308 194 348 383 24 119 -3 265 -69 370
-37 58 -132 145 -190 174 -101 51 -248 66 -351 38z m-166 -406 c14 -14 19 -27
14 -42 -8 -26 -8 -34 1 -69 10 -41 -24 -68 -85 -68 -58 0 -61 5 -61 100 0 95
3 100 61 100 36 0 54 -5 70 -21z m149 -1 c10 -23 40 -151 40 -169 0 -20 -31
-8 -40 16 -7 18 -17 25 -35 25 -18 0 -28 -7 -35 -25 -9 -23 -29 -33 -42 -20
-7 7 31 167 44 183 17 20 57 14 68 -10z m145 -38 l30 -55 5 55 c4 47 8 55 25
55 19 0 20 -7 20 -95 0 -90 -1 -95 -21 -98 -17 -2 -29 9 -55 55 l-34 58 -3
-58 c-3 -49 -6 -58 -20 -55 -14 3 -18 18 -20 87 -2 47 0 91 3 98 10 28 40 7
70 -47z m165 18 l19 -43 16 38 c15 36 39 56 52 43 3 -3 -6 -34 -20 -68 -15
-35 -27 -78 -27 -95 0 -26 -4 -33 -20 -33 -16 0 -20 7 -20 33 0 17 -14 59 -30
92 -16 32 -26 63 -24 67 13 20 37 4 54 -34z m198 30 c17 -21 52 -172 42 -182
-14 -14 -40 1 -40 24 0 16 -7 20 -30 20 -23 0 -30 -4 -30 -20 0 -23 -26 -38
-41 -23 -10 10 7 106 30 166 11 29 50 38 69 15z"/>
<path d="M1490 1330 c0 -15 7 -20 25 -20 18 0 25 5 25 20 0 15 -7 20 -25 20
-18 0 -25 -5 -25 -20z"/>
<path d="M1497 1274 c-4 -4 -7 -16 -7 -26 0 -13 7 -18 26 -18 21 0 25 4 22 22
-3 23 -27 35 -41 22z"/>
<path d="M1677 1334 c-10 -11 -9 -52 3 -59 6 -3 13 1 16 10 8 19 -8 60 -19 49z"/>
<path d="M2187 1313 c-6 -31 7 -53 22 -37 11 10 3 64 -9 64 -4 0 -10 -12 -13
-27z"/>
</g>
</svg>
